<svg width="1440" height="1070" viewBox="0 0 1440 1070" fill="none" xmlns="http://www.w3.org/2000/svg">
<path d="M-235.862 100.458C-256.951 61.8831 -169.992 49.3792 -27.7374 49.2785C-21.9089 42.6461 -18.6178 38.509 -18.6178 38.509L-20.8397 49.2831C300.025 49.9387 891.163 111.071 1169.2 81.5271C1574.05 38.509 1296.95 533.489 1389.74 513.979C1482.53 494.469 1329 757.857 1026.08 738.156C723.153 718.456 166.346 502.839 164.33 607.877C162.314 712.914 -132.015 588.366 -132.015 588.366L-20.8397 49.2831C-23.153 49.2784 -25.4524 49.2768 -27.7374 49.2785C-61.1038 87.2465 -177.624 206.988 -235.862 100.458Z" fill="#FFF7D1"/>
<g clip-path="url(#clip0_108_2)">
<path d="M1254.6 196.44C1281.09 245.219 1275.5 307.287 1267 357.228C1258.8 407.555 1247.99 446.141 1228.85 479.809C1210.06 513.524 1182.99 541.983 1148.84 561.897C1115.1 581.521 1073.93 592.552 1026.2 596.487C978.42 600.761 923.365 597.843 872.186 573.702C820.958 549.899 773.251 504.824 753.61 449.027C734.375 392.939 743.207 326.129 781.686 284.362C819.76 242.885 887.48 226.451 947.104 196.157C1007.08 165.911 1059.02 121.466 1114.47 116.843C1169.86 112.558 1228.42 148.047 1254.6 196.44Z" fill="#F1C21B"/>
</g>
<g clip-path="url(#clip1_108_2)">
<mask id="mask0_108_2" style="mask-type:alpha" maskUnits="userSpaceOnUse" x="743" y="116" width="532" height="483">
<path d="M1254.6 196.44C1281.09 245.219 1275.5 307.287 1267 357.228C1258.8 407.555 1247.99 446.141 1228.85 479.809C1210.06 513.524 1182.99 541.983 1148.84 561.897C1115.1 581.521 1073.93 592.552 1026.2 596.487C978.42 600.761 923.365 597.843 872.186 573.702C820.958 549.899 773.251 504.824 753.61 449.027C734.375 392.939 743.207 326.129 781.686 284.362C819.76 242.885 887.48 226.451 947.104 196.157C1007.08 165.911 1059.02 121.466 1114.47 116.843C1169.86 112.558 1228.42 148.047 1254.6 196.44Z" fill="#FFE55E"/>
</mask>
<g mask="url(#mask0_108_2)">
<path d="M785.982 392.842C788.008 404.668 799.876 405.413 811.593 414.881C829.08 428.348 841.731 423.629 843.198 413.856C844.664 404.083 832.087 397.452 830.845 387.151C828.997 376.798 839.294 367.505 834.865 358.673C830.764 349.578 817.125 348.096 803.969 365.584C795.621 377.086 784.563 381.07 785.982 392.842Z" fill="white"/>
<path d="M1283.98 477.431C1296.5 465.203 1285.43 452.215 1285.25 431.919C1284.17 402.197 1265.57 393.07 1252.05 399.907C1238.53 406.745 1243.07 425.508 1231.64 435.615C1220.75 446.399 1198.9 443.635 1192.5 455.803C1185.44 467.852 1197.39 483.315 1232.23 482.039C1254.83 480.885 1270.91 488.981 1283.98 477.431Z" fill="white"/>
<path d="M786.489 476.456C799.331 464.548 816.078 461.967 824.395 469.433C832.204 477.304 828.42 493.597 816.085 505.1C803.243 517.007 786.495 519.588 778.179 512.122C769.433 504.17 773.647 488.363 786.489 476.456Z" fill="white"/>
<path d="M779.888 333.727C795.676 341.835 812.748 340.635 817.853 330.763C823.387 321.378 814.77 306.719 798.983 298.611C783.195 290.503 766.123 291.704 761.018 301.575C755.913 311.447 764.101 325.62 779.888 333.727Z" fill="white"/>
<path d="M749.214 418.359C767.127 413.186 784.691 417.415 788.44 428.522C792.188 439.63 780.637 452.994 762.724 458.167C744.81 463.34 727.246 459.111 723.498 448.003C719.749 436.896 731.3 423.532 749.214 418.359Z" fill="white"/>
<path d="M740.574 398.503C759.376 399.247 774.783 390.268 775.289 379.089C775.365 367.424 760.658 357.61 741.855 356.865C723.053 356.121 707.646 365.1 707.141 376.279C707.065 387.944 721.772 397.758 740.574 398.503Z" fill="white"/>
</g>
</g>
<path d="M709.38 540.655C714.406 547.504 721.044 544.68 730.563 547.171C744.452 550.559 749.518 543.886 746.658 537.029C743.893 530.452 735.284 529.85 730.788 523.769C726.293 517.688 728.093 508.574 722.74 503.967C717.387 499.361 709.855 502.749 709.205 517.674C708.866 527.905 704.6 533.734 709.38 540.655Z" fill="#FFAA00"/>
<path d="M716.314 560.637C717.94 553.415 723.08 548.563 727.488 550.37C731.895 552.178 734.356 559.457 732.576 567.03C730.95 574.253 725.81 579.105 721.402 577.297C716.995 575.49 714.781 568.14 716.314 560.637Z" fill="#FFAA00"/>
<path d="M692.734 528.164C699.964 528.563 705.421 524.528 705.047 519.385C704.672 514.243 698.538 509.823 691.403 509.706C684.173 509.307 678.716 513.341 679.091 518.484C679.37 523.345 685.504 527.765 692.734 528.164Z" fill="#FFAA00"/>
<path d="M694.166 554.989C699.045 549.275 706.095 547.564 709.852 551.421C713.609 555.277 712.757 563.23 707.878 568.944C702.999 574.659 695.948 576.37 692.192 572.513C688.683 568.585 689.382 560.985 694.166 554.989Z" fill="#FFAA00"/>
<path d="M691.851 551.856C698.345 548.45 701.858 541.88 699.301 536.74C696.839 531.882 689.567 530.566 682.825 534.044C676.331 537.45 672.818 544.02 675.375 549.16C677.837 554.018 685.358 555.263 691.851 551.856Z" fill="#FFAA00"/>
<path d="M892.631 144.392C886.294 145.566 885.907 151.354 881.069 157.404C874.132 166.26 876.92 172.667 882.358 173.241C887.796 173.815 891.084 167.541 896.858 166.981C902.482 166.075 907.972 171.062 912.815 168.837C917.733 166.786 918.024 159.826 908.193 153.449C901.605 149.277 899.016 143.804 892.631 144.392Z" fill="#D9A6FF"/>
<path d="M875.304 142.162C879.631 146.7 881.172 152.5 878.775 155.103C876.21 157.77 870.647 156.249 866.32 151.71C861.994 147.172 860.453 141.373 862.85 138.769C865.415 136.103 870.978 137.624 875.304 142.162Z" fill="#D9A6FF"/>
<path d="M907.447 137.021C904.782 142.278 905.561 147.861 909.003 149.605C912.445 151.35 917.462 148.653 920.127 143.396C922.791 138.14 922.012 132.557 918.57 130.812C914.951 129.134 909.934 131.831 907.447 137.021Z" fill="#D9A6FF"/>
<path d="M888.09 128.77C890.519 134.824 889.249 140.794 885.499 141.995C881.749 143.195 876.743 139.167 874.314 133.112C871.886 127.057 873.156 121.088 876.906 119.887C880.656 118.686 885.662 122.715 888.09 128.77Z" fill="#D9A6FF"/>
<path d="M891.719 127.787C891.742 133.774 895.007 138.541 898.827 138.651C902.818 138.697 905.952 134.036 906.001 128.216C905.977 122.229 902.712 117.462 898.892 117.352C895 117.076 891.695 121.801 891.719 127.787Z" fill="#D9A6FF"/>
<path d="M1134.62 158.657C1131.74 157.197 1129.55 159.334 1125.53 160.227C1119.71 161.577 1118.53 164.916 1120.45 166.786C1122.36 168.655 1125.85 167.206 1128.3 168.736C1130.81 170.085 1131.18 173.689 1133.85 174.288C1136.49 174.977 1139.06 172.354 1137.48 166.895C1136.39 163.276 1137.31 160.361 1134.62 158.657Z" fill="#FFF1A6"/>
<path d="M1128.53 152.355C1128.62 155.433 1127.17 158.159 1125.32 158.447C1123.39 158.709 1121.76 156.431 1121.67 153.353C1121.59 150.276 1123.03 147.55 1124.88 147.262C1126.82 147 1128.45 149.277 1128.53 152.355Z" fill="#FFF1A6"/>
<path d="M1142.81 160.436C1139.91 161.677 1138.25 164.087 1138.97 165.808C1139.7 167.529 1142.6 167.996 1145.49 166.755C1148.38 165.514 1150.05 163.104 1149.33 161.383C1148.51 159.634 1145.61 159.167 1142.81 160.436Z" fill="#FFF1A6"/>
<path d="M1138.09 151.096C1136.9 154.191 1134.3 156.131 1132.42 155.462C1130.54 154.794 1130.01 151.708 1131.2 148.614C1132.38 145.52 1134.98 143.58 1136.86 144.248C1138.74 144.916 1139.27 148.002 1138.09 151.096Z" fill="#FFF1A6"/>
<path d="M1139.82 151.955C1137.72 154.294 1137.31 157.139 1138.76 158.338C1140.29 159.564 1143.16 158.697 1145.23 156.445C1147.33 154.106 1147.74 151.261 1146.29 150.062C1144.88 148.776 1141.92 149.616 1139.82 151.955Z" fill="#FFF1A6"/>
<path d="M1219.73 232.048C1218.01 229.53 1215.22 230.304 1211.48 229.218C1206.04 227.691 1203.54 229.922 1204.27 232.339C1205.01 234.757 1208.56 235.144 1209.89 237.521C1211.36 239.777 1210.03 242.933 1211.97 244.642C1213.84 246.411 1217.17 245.406 1218.35 240.169C1219.09 236.677 1221.19 234.681 1219.73 232.048Z" fill="#FFF1A6"/>
<path d="M1217.88 224.134C1216.53 226.742 1214.07 228.355 1212.39 227.747C1210.65 227.077 1210.34 224.431 1211.68 221.823C1213.02 219.216 1215.48 217.603 1217.16 218.21C1218.91 218.88 1219.22 221.527 1217.88 224.134Z" fill="#FFF1A6"/>
<path d="M1225.76 236.949C1222.79 236.663 1220.31 237.905 1220.12 239.663C1219.94 241.422 1222.14 243.132 1225.11 243.418C1228.08 243.704 1230.57 242.462 1230.75 240.704C1230.87 238.881 1228.67 237.17 1225.76 236.949Z" fill="#FFF1A6"/>
<path d="M1226.45 227.255C1224.03 229.294 1220.97 229.723 1219.7 228.301C1218.43 226.879 1219.41 224.059 1221.82 222.019C1224.24 219.98 1227.31 219.551 1228.58 220.973C1229.85 222.395 1228.87 225.215 1226.45 227.255Z" fill="#FFF1A6"/>
<path d="M1227.37 228.567C1224.55 229.555 1222.9 231.739 1223.55 233.401C1224.28 235.126 1227.06 235.713 1229.83 234.783C1232.66 233.795 1234.3 231.612 1233.65 229.95C1233.05 228.23 1230.2 227.579 1227.37 228.567Z" fill="#FFF1A6"/>
<path d="M1100.99 240.755C1098.07 239.734 1096.3 241.992 1092.63 243.306C1087.32 245.261 1086.68 248.521 1088.74 250.039C1090.8 251.557 1093.9 249.786 1096.42 250.923C1098.97 251.884 1099.82 255.206 1102.42 255.447C1105.01 255.776 1107.07 253.02 1104.83 248.108C1103.3 244.858 1103.76 242.025 1100.99 240.755Z" fill="#FFF1A6"/>
<path d="M1094.44 235.544C1094.94 238.413 1093.96 241.136 1092.25 241.627C1090.45 242.103 1088.6 240.168 1088.1 237.299C1087.59 234.429 1088.58 231.707 1090.29 231.216C1092.08 230.739 1093.93 232.675 1094.44 235.544Z" fill="#FFF1A6"/>
<path d="M1108.9 241.388C1106.34 242.893 1105.1 245.344 1106.02 246.866C1106.95 248.388 1109.75 248.478 1112.31 246.973C1114.87 245.468 1116.1 243.017 1115.18 241.495C1114.17 239.958 1111.37 239.868 1108.9 241.388Z" fill="#FFF1A6"/>
<path d="M1103.24 233.188C1102.55 236.225 1100.36 238.352 1098.49 237.951C1096.62 237.551 1095.7 234.727 1096.39 231.69C1097.09 228.652 1099.27 226.526 1101.14 226.926C1103.01 227.326 1103.94 230.15 1103.24 233.188Z" fill="#FFF1A6"/>
<path d="M1104.95 233.778C1103.29 236.217 1103.29 238.927 1104.82 239.875C1106.45 240.838 1109.03 239.686 1110.67 237.332C1112.34 234.893 1112.33 232.183 1110.8 231.235C1109.28 230.202 1106.61 231.34 1104.95 233.778Z" fill="#FFF1A6"/>
<path d="M1005.91 200.752C1002.9 201.495 1002.89 204.291 1000.74 207.339C997.671 211.795 999.2 214.801 1001.83 214.925C1004.46 215.049 1005.85 211.938 1008.61 211.507C1011.29 210.913 1014.07 213.16 1016.34 211.954C1018.64 210.829 1018.57 207.471 1013.66 204.677C1010.37 202.853 1008.97 200.291 1005.91 200.752Z" fill="#FFF1A6"/>
<path d="M997.505 200.153C999.719 202.218 1000.63 204.967 999.556 206.288C998.401 207.644 995.681 207.067 993.467 205.003C991.253 202.938 990.34 200.189 991.416 198.868C992.571 197.513 995.29 198.089 997.505 200.153Z" fill="#FFF1A6"/>
<path d="M1012.81 196.808C1011.69 199.413 1012.23 202.079 1013.93 202.822C1015.64 203.566 1017.97 202.127 1019.09 199.522C1020.22 196.917 1019.68 194.252 1017.97 193.508C1016.18 192.801 1013.85 194.24 1012.81 196.808Z" fill="#FFF1A6"/>
<path d="M1003.25 193.361C1004.59 196.209 1004.16 199.119 1002.39 199.802C1000.62 200.485 998.098 198.686 996.751 195.838C995.404 192.991 995.839 190.081 997.607 189.397C999.375 188.714 1001.9 190.514 1003.25 193.361Z" fill="#FFF1A6"/>
<path d="M1004.96 192.799C1005.15 195.681 1006.86 197.885 1008.7 197.831C1010.62 197.741 1011.99 195.41 1011.84 192.606C1011.65 189.724 1009.94 187.52 1008.1 187.574C1006.23 187.55 1004.78 189.917 1004.96 192.799Z" fill="#FFF1A6"/>
<path d="M907.428 244.729C906.907 247.855 909.671 249.132 911.795 252.498C914.928 257.359 918.543 257.3 919.764 254.918C920.985 252.536 918.484 249.838 919.208 247.086C919.737 244.338 923.126 242.771 922.874 240.13C922.721 237.487 919.367 236.03 914.548 239.321C911.369 241.546 908.244 241.692 907.428 244.729Z" fill="#FFF1A6"/>
<path d="M902.999 252.177C905.991 251.047 909.118 251.446 909.984 253.052C910.852 254.749 909.132 257.028 906.14 258.157C903.148 259.287 900.02 258.888 899.155 257.282C898.287 255.585 900.007 253.306 902.999 252.177Z" fill="#FFF1A6"/>
<path d="M906.366 236.832C908.482 239.057 911.355 239.763 912.807 238.516C914.259 237.268 913.805 234.451 911.689 232.226C909.573 230.001 906.7 229.295 905.248 230.542C903.798 231.884 904.252 234.702 906.366 236.832Z" fill="#FFF1A6"/>
<path d="M898.612 243.961C902.024 243.999 904.747 245.731 904.685 247.697C904.623 249.662 901.762 251.206 898.35 251.168C894.938 251.131 892.214 249.398 892.276 247.433C892.338 245.467 895.2 243.923 898.612 243.961Z" fill="#FFF1A6"/>
<path d="M898.876 242.306C901.828 243.441 904.744 242.847 905.463 241.106C906.18 239.274 904.431 236.937 901.573 235.8C898.621 234.666 895.705 235.26 894.986 237C894.173 238.743 895.924 241.171 898.876 242.306Z" fill="#FFF1A6"/>
<path d="M1235.08 359.737C1232.44 357.918 1229.97 359.76 1225.88 360.133C1219.93 360.729 1218.31 363.896 1219.95 365.997C1221.58 368.099 1225.24 367.107 1227.44 368.938C1229.74 370.599 1229.61 374.227 1232.17 375.164C1234.69 376.186 1237.59 373.909 1236.78 368.285C1236.2 364.551 1237.51 361.773 1235.08 359.737Z" fill="#FFF1A6"/>
<path d="M1229.95 352.731C1229.61 355.801 1227.8 358.324 1225.93 358.374C1223.98 358.386 1222.68 355.914 1223.02 352.845C1223.36 349.776 1225.16 347.252 1227.04 347.202C1228.99 347.191 1230.29 349.662 1229.95 352.731Z" fill="#FFF1A6"/>
<path d="M1242.97 362.531C1239.94 363.394 1237.96 365.576 1238.44 367.378C1238.91 369.18 1241.72 370.016 1244.75 369.153C1247.78 368.289 1249.77 366.108 1249.29 364.306C1248.72 362.464 1245.91 361.628 1242.97 362.531Z" fill="#FFF1A6"/>
<path d="M1239.59 352.696C1237.99 355.619 1235.15 357.214 1233.38 356.309C1231.61 355.403 1231.51 352.269 1233.11 349.347C1234.72 346.424 1237.55 344.829 1239.33 345.734C1241.1 346.639 1241.2 349.773 1239.59 352.696Z" fill="#FFF1A6"/>
<path d="M1241.2 353.748C1238.8 355.803 1238 358.578 1239.26 359.954C1240.62 361.369 1243.57 360.875 1245.93 358.902C1248.33 356.847 1249.13 354.072 1247.86 352.695C1246.64 351.236 1243.6 351.693 1241.2 353.748Z" fill="#FFF1A6"/>
<path d="M865.617 500.97C862.571 499.821 860.637 502.161 856.736 503.458C851.087 505.392 850.31 508.818 852.439 510.472C854.568 512.126 857.881 510.333 860.5 511.596C863.161 512.673 863.963 516.202 866.696 516.521C869.407 516.932 871.66 514.072 869.443 508.83C867.926 505.361 868.503 502.38 865.617 500.97Z" fill="#FFF1A6"/>
<path d="M858.848 495.316C859.295 498.357 858.175 501.207 856.362 501.682C854.459 502.141 852.564 500.053 852.117 497.012C851.67 493.97 852.79 491.121 854.603 490.645C856.506 490.186 858.4 492.275 858.848 495.316Z" fill="#FFF1A6"/>
<path d="M873.943 501.851C871.205 503.377 869.827 505.934 870.753 507.564C871.678 509.194 874.63 509.358 877.369 507.832C880.107 506.306 881.485 503.748 880.559 502.119C879.538 500.472 876.586 500.307 873.943 501.851Z" fill="#FFF1A6"/>
<path d="M868.199 493.058C867.378 496.247 865.014 498.437 863.057 497.968C861.099 497.5 860.208 494.496 861.028 491.308C861.849 488.119 864.213 485.929 866.17 486.397C868.128 486.866 869.019 489.869 868.199 493.058Z" fill="#FFF1A6"/>
<path d="M869.991 493.728C868.17 496.261 868.096 499.122 869.682 500.161C871.361 501.217 874.116 500.064 875.917 497.62C877.738 495.087 877.812 492.226 876.226 491.187C874.659 490.059 871.812 491.195 869.991 493.728Z" fill="#FFF1A6"/>
<path d="M1326.77 357.516C1323.52 352.368 1317.67 353.914 1310.07 351.707C1299.01 348.542 1293.7 353.129 1295.05 358.112C1296.27 362.989 1303.61 363.912 1306.07 368.663C1308.89 373.26 1305.87 379.638 1309.73 383.295C1313.45 386.848 1320.27 384.965 1323.24 374.186C1325.17 366.965 1329.79 362.925 1326.77 357.516Z" fill="#FF6E9F"/>
<path d="M1323.38 342.67C1320.89 347.914 1315.92 350.794 1312.41 349.367C1308.91 347.94 1308.12 342.316 1310.74 337.178C1313.24 331.934 1318.07 328.949 1321.71 330.481C1325.36 332.013 1325.88 337.427 1323.38 342.67Z" fill="#FF6E9F"/>
<path d="M1338.51 368.3C1332.56 367.593 1327.43 370.138 1326.91 373.881C1326.39 377.625 1330.86 381.102 1336.78 381.573C1342.73 382.28 1347.86 379.735 1348.38 375.992C1348.9 372.248 1344.43 368.771 1338.51 368.3Z" fill="#FF6E9F"/>
<path d="M1340.72 348.423C1335.84 352.245 1329.79 352.977 1327.14 350.037C1324.49 347.098 1326.44 341.434 1331.32 337.613C1336.19 333.791 1342.24 333.059 1344.89 335.999C1347.55 338.938 1345.59 344.602 1340.72 348.423Z" fill="#FF6E9F"/>
<path d="M1342.36 351.19C1336.31 353.23 1332.62 357.766 1333.97 361.435C1335.32 365.103 1341.2 366.41 1347.25 364.37C1353.3 362.33 1356.99 357.794 1355.63 354.125C1354.28 350.457 1348.41 349.15 1342.36 351.19Z" fill="#FF6E9F"/>
<defs>
<clipPath id="clip0_108_2">
<rect width="664.676" height="632.598" fill="white" transform="translate(727.547)"/>
</clipPath>
<clipPath id="clip1_108_2">
<rect width="664.676" height="632.598" fill="white" transform="translate(727.547)"/>
</clipPath>
</defs>
</svg>
